<svg xmlns="http://www.w3.org/2000/svg" xmlns:xlink="http://www.w3.org/1999/xlink" contentStyleType="text/css" height="216px" preserveAspectRatio="none" style="width:481px;height:216px;background:#FFFFFF;" version="1.1" viewBox="0 0 481 216" width="481px" zoomAndPan="magnify"><defs/><g><!--cluster User Interface--><g id="cluster_User Interface"><rect fill="none" height="203.98" rx="2.5" ry="2.5" style="stroke:#181818;stroke-width:1.0;" width="307" x="7" y="7"/><text fill="#000000" font-family="sans-serif" font-size="14" font-weight="bold" lengthAdjust="spacing" textLength="101.1719" x="109.9141" y="22.5352">User Interface</text></g><!--entity Login Screen--><g id="elem_Login Screen"><rect fill="#F1F1F1" height="46.4883" rx="2.5" ry="2.5" style="stroke:#181818;stroke-width:0.5;" width="126.6865" x="22.66" y="42"/><rect fill="#F1F1F1" height="10" style="stroke:#181818;stroke-width:0.5;" width="15" x="129.3465" y="47"/><rect fill="#F1F1F1" height="2" style="stroke:#181818;stroke-width:0.5;" width="4" x="127.3465" y="49"/><rect fill="#F1F1F1" height="2" style="stroke:#181818;stroke-width:0.5;" width="4" x="127.3465" y="53"/><text fill="#000000" font-family="sans-serif" font-size="14" lengthAdjust="spacing" textLength="86.6865" x="37.66" y="75.5352">Login Screen</text></g><!--entity Dashboard--><g id="elem_Dashboard"><rect fill="#F1F1F1" height="46.4883" rx="2.5" ry="2.5" style="stroke:#181818;stroke-width:0.5;" width="113.7256" x="184.14" y="42"/><rect fill="#F1F1F1" height="10" style="stroke:#181818;stroke-width:0.5;" width="15" x="277.8656" y="47"/><rect fill="#F1F1F1" height="2" style="stroke:#181818;stroke-width:0.5;" width="4" x="275.8656" y="49"/><rect fill="#F1F1F1" height="2" style="stroke:#181818;stroke-width:0.5;" width="4" x="275.8656" y="53"/><text fill="#000000" font-family="sans-serif" font-size="14" lengthAdjust="spacing" textLength="73.7256" x="199.14" y="75.5352">Dashboard</text></g><!--entity Settings--><g id="elem_Settings"><rect fill="#F1F1F1" height="46.4883" rx="2.5" ry="2.5" style="stroke:#181818;stroke-width:0.5;" width="94.4141" x="38.79" y="148.49"/><rect fill="#F1F1F1" height="10" style="stroke:#181818;stroke-width:0.5;" width="15" x="113.2041" y="153.49"/><rect fill="#F1F1F1" height="2" style="stroke:#181818;stroke-width:0.5;" width="4" x="111.2041" y="155.49"/><rect fill="#F1F1F1" height="2" style="stroke:#181818;stroke-width:0.5;" width="4" x="111.2041" y="159.49"/><text fill="#000000" font-family="sans-serif" font-size="14" lengthAdjust="spacing" textLength="54.4141" x="53.79" y="182.0252">Settings</text></g><!--entity Important Process--><g id="elem_Important Process"><rect fill="#F1F1F1" height="36.4883" rx="2.5" ry="2.5" style="stroke:#181818;stroke-width:0.5;" width="142.876" x="332.56" y="47"/><text fill="#000000" font-family="sans-serif" font-size="14" lengthAdjust="spacing" textLength="122.876" x="342.56" y="70.5352">Important Process</text></g><!--SRC=[HOon2e8n30RtF4NeixWK_a4eJjAXV_oi1KqboIQ-kmK5RxiRpY3HjD_1wUGmpXgmQnCaVX4lpjliGxc80Lg_wT3yjizcbvyNH0pjNkbDzX_cntFQak2ZJO5x8le0]--></g></svg>