<svg xmlns="http://www.w3.org/2000/svg" xmlns:xlink="http://www.w3.org/1999/xlink" contentStyleType="text/css" height="262px" preserveAspectRatio="none" style="width:668px;height:262px;background:#FFFFFF;" version="1.1" viewBox="0 0 668 262" width="668px" zoomAndPan="magnify"><defs/><g><!--cluster Okta--><g id="cluster_Okta"><path d="M8.5,6 L115.5527,6 A3.75,3.75 0 0 1 118.0527,8.5 L125.0527,28.4883 L413.5,28.4883 A2.5,2.5 0 0 1 416,30.9883 L416,211.5 A2.5,2.5 0 0 1 413.5,214 L8.5,214 A2.5,2.5 0 0 1 6,211.5 L6,8.5 A2.5,2.5 0 0 1 8.5,6 " fill="none" style="stroke:#000000;stroke-width:1.5;"/><line style="stroke:#000000;stroke-width:1.5;" x1="6" x2="125.0527" y1="28.4883" y2="28.4883"/><text fill="#000000" font-family="sans-serif" font-size="14" font-weight="bold" lengthAdjust="spacing" textLength="106.0527" x="10" y="21.5352">acme.okta.com</text></g><!--cluster Applications--><g id="cluster_Applications"><path d="M32.5,49 L123.4268,49 A3.75,3.75 0 0 1 125.9268,51.5 L132.9268,71.4883 L389.5,71.4883 A2.5,2.5 0 0 1 392,73.9883 L392,187.5 A2.5,2.5 0 0 1 389.5,190 L32.5,190 A2.5,2.5 0 0 1 30,187.5 L30,51.5 A2.5,2.5 0 0 1 32.5,49 " fill="none" style="stroke:#000000;stroke-width:1.5;"/><line style="stroke:#000000;stroke-width:1.5;" x1="30" x2="132.9268" y1="71.4883" y2="71.4883"/><text fill="#000000" font-family="sans-serif" font-size="14" font-weight="bold" lengthAdjust="spacing" textLength="89.9268" x="34" y="64.5352">Applications</text></g><!--cluster localhost--><g id="cluster_localhost"><path d="M481.5,49 L547.9541,49 A3.75,3.75 0 0 1 550.4541,51.5 L557.4541,71.4883 L658.5,71.4883 A2.5,2.5 0 0 1 661,73.9883 L661,167.5 A2.5,2.5 0 0 1 658.5,170 L481.5,170 A2.5,2.5 0 0 1 479,167.5 L479,51.5 A2.5,2.5 0 0 1 481.5,49 " fill="none" style="stroke:#000000;stroke-width:1.5;"/><line style="stroke:#000000;stroke-width:1.5;" x1="479" x2="557.4541" y1="71.4883" y2="71.4883"/><text fill="#000000" font-family="sans-serif" font-size="14" font-weight="bold" lengthAdjust="spacing" textLength="65.4541" x="483" y="64.5352">localhost</text></g><g id="elem_OktaOIDCApp"><rect fill="#F1F1F1" height="81.9531" style="stroke:#181818;stroke-width:0.5;" width="314.4785" x="54" y="88.5"/><text fill="#000000" font-family="sans-serif" font-size="14" lengthAdjust="spacing" textLength="128.29" x="147.0942" y="104.0352">OAuth Sample App</text><line style="stroke:#181818;stroke-width:1.0;" x1="54" x2="368.4785" y1="108.9883" y2="108.9883"/><text fill="#000000" font-family="sans-serif" font-size="14" lengthAdjust="spacing" textLength="56.8477" x="73.0068" y="124.5234">client_id</text><text fill="#000000" font-family="sans-serif" font-size="14" lengthAdjust="spacing" textLength="16.0234" x="153.8613" y="124.5234">c1</text><line style="stroke:#181818;stroke-width:1.0;" x1="148.8613" x2="148.8613" y1="108.9883" y2="129.4766"/><line style="stroke:#181818;stroke-width:1.0;" x1="54" x2="368.4785" y1="129.4766" y2="129.4766"/><text fill="#000000" font-family="sans-serif" font-size="14" lengthAdjust="spacing" textLength="84.8613" x="59" y="145.0117">client_secret</text><text fill="#000000" font-family="sans-serif" font-size="14" lengthAdjust="spacing" textLength="15.9893" x="153.8613" y="145.0117">s1</text><line style="stroke:#181818;stroke-width:1.0;" x1="148.8613" x2="148.8613" y1="129.4766" y2="149.9648"/><line style="stroke:#181818;stroke-width:1.0;" x1="54" x2="368.4785" y1="149.9648" y2="149.9648"/><text fill="#000000" font-family="sans-serif" font-size="14" lengthAdjust="spacing" textLength="77.7861" x="62.5376" y="165.5">redirect_uri</text><text fill="#000000" font-family="sans-serif" font-size="14" lengthAdjust="spacing" textLength="209.6172" x="153.8613" y="165.5">localhost:9988/oauth/callback</text><line style="stroke:#181818;stroke-width:1.0;" x1="148.8613" x2="148.8613" y1="149.9648" y2="170.4531"/></g><g id="elem_SampleApp"><rect fill="#F1F1F1" height="61.4648" style="stroke:#181818;stroke-width:0.5;" width="134.2236" x="503" y="88.5"/><text fill="#000000" font-family="sans-serif" font-size="14" lengthAdjust="spacing" textLength="120.2236" x="510" y="104.0352">OIDC Sample App</text><line style="stroke:#181818;stroke-width:1.0;" x1="503" x2="637.2236" y1="108.9883" y2="108.9883"/><text fill="#000000" font-family="sans-serif" font-size="14" lengthAdjust="spacing" textLength="56.8477" x="522.0068" y="124.5234">client_id</text><text fill="#000000" font-family="sans-serif" font-size="14" lengthAdjust="spacing" textLength="16.0234" x="602.8613" y="124.5234">c1</text><line style="stroke:#181818;stroke-width:1.0;" x1="597.8613" x2="597.8613" y1="108.9883" y2="129.4766"/><line style="stroke:#181818;stroke-width:1.0;" x1="503" x2="637.2236" y1="129.4766" y2="129.4766"/><text fill="#000000" font-family="sans-serif" font-size="14" lengthAdjust="spacing" textLength="84.8613" x="508" y="145.0117">client_secret</text><text fill="#000000" font-family="sans-serif" font-size="14" lengthAdjust="spacing" textLength="15.9893" x="602.8613" y="145.0117">s1</text><line style="stroke:#181818;stroke-width:1.0;" x1="597.8613" x2="597.8613" y1="129.4766" y2="149.9648"/></g><g id="elem_N1"><path d="M110.56,230.35 L110.56,255.6605 L311.4335,255.6605 L311.4335,240.35 L301.4335,230.35 L110.56,230.35 " fill="#FEFFDD" style="stroke:#181818;stroke-width:0.5;"/><path d="M301.4335,230.35 L301.4335,240.35 L311.4335,240.35 L301.4335,230.35 " fill="#FEFFDD" style="stroke:#181818;stroke-width:1.0;"/><text fill="#000000" font-family="sans-serif" font-size="13" lengthAdjust="spacing" textLength="179.8735" x="116.56" y="247.9184">This is global floating notes.</text></g><!--link OktaOIDCApp to SampleApp--><g id="link_OktaOIDCApp_SampleApp"><path codeLine="26" d="M369,118.5 C428.11,118.5 436.89,118.5 496,118.5 " fill="none" id="OktaOIDCApp-to-SampleApp" style="stroke:#181818;stroke-width:1.0;"/><polygon fill="#181818" points="502,118.5,493,114.5,497,118.5,493,122.5,502,118.5" style="stroke:#181818;stroke-width:1.0;"/><text fill="#000000" font-family="sans-serif" font-size="13" lengthAdjust="spacing" textLength="29.6182" x="433" y="115.0684">copy</text></g><!--link OktaOIDCApp to SampleApp--><g id="link_OktaOIDCApp_SampleApp"><path codeLine="27" d="M369,138.5 C410.83,138.5 421.24,145.41 463,143 C480.42,142 478.55,138.5 496,138.5 " fill="none" id="OktaOIDCApp-to-SampleApp-1" style="stroke:#181818;stroke-width:1.0;"/><polygon fill="#181818" points="502,138.5,493,134.5,497,138.5,493,142.5,502,138.5" style="stroke:#181818;stroke-width:1.0;"/><text fill="#000000" font-family="sans-serif" font-size="13" lengthAdjust="spacing" textLength="29.6182" x="433" y="139.5684">copy</text></g><!--SRC=[ZP0nQyCm48Lt_Oh3UnIo9OOMGhjagOTs3nTPiKLadR0kGodvxvLantPBe0KBVBftxxudgyyCJD2RfcMeJQyL6t92E68D6E1j8pvQ4o1-ZQKJMZXRGZQkWIG9KcXNvryXFAeBDXeAL9sMT66KYheYsLInW2y1SDVilRT6OLeMSWEWGmz5jRzo2-_OUPj5qtHrU7s9zQW5KDPenqTJmzCpgCtFsw1LhpbrmhtJwo7TyTgRrB2aqBOKkDpjjjirOToxZbVs50dpp4saSvjpJICPOi2DLBzfXt9cVKJwc3DlIs7bydda8dvPpcwhrIA5dBOk9IKeyf__j1nX_h8TPQFrDm00]--></g></svg>