<?xml version="1.0" encoding="UTF-8" standalone="no"?><svg xmlns="http://www.w3.org/2000/svg" xmlns:xlink="http://www.w3.org/1999/xlink" contentStyleType="text/css" height="260px" preserveAspectRatio="none" style="width:672px;height:260px;background:#FFFFFF;" version="1.1" viewBox="0 0 672 260" width="672px" zoomAndPan="magnify"><defs/><g><!--MD5=[5445c9a83df02425d5b77c0c107f51be]
cluster Okta--><g id="cluster_Okta"><path d="M8.5,6 L114.5,6 A3.75,3.75 0 0 1 117,8.5 L124,28.4883 L415.5,28.4883 A2.5,2.5 0 0 1 418,30.9883 L418,209.5 A2.5,2.5 0 0 1 415.5,212 L8.5,212 A2.5,2.5 0 0 1 6,209.5 L6,8.5 A2.5,2.5 0 0 1 8.5,6 " style="stroke:#000000;stroke-width:1.5;fill:none;"/><line style="stroke:#000000;stroke-width:1.5;fill:none;" x1="6" x2="124" y1="28.4883" y2="28.4883"/><text fill="#000000" font-family="sans-serif" font-size="14" font-weight="bold" lengthAdjust="spacing" textLength="105" x="10" y="21.5352">acme.okta.com</text></g><!--MD5=[4f404de55baf87f510f6f29ca86187cc]
cluster Applications--><g id="cluster_Applications"><path d="M32.5,49 L123.5,49 A3.75,3.75 0 0 1 126,51.5 L133,71.4883 L391.5,71.4883 A2.5,2.5 0 0 1 394,73.9883 L394,185.5 A2.5,2.5 0 0 1 391.5,188 L32.5,188 A2.5,2.5 0 0 1 30,185.5 L30,51.5 A2.5,2.5 0 0 1 32.5,49 " style="stroke:#000000;stroke-width:1.5;fill:none;"/><line style="stroke:#000000;stroke-width:1.5;fill:none;" x1="30" x2="133" y1="71.4883" y2="71.4883"/><text fill="#000000" font-family="sans-serif" font-size="14" font-weight="bold" lengthAdjust="spacing" textLength="90" x="34" y="64.5352">Applications</text></g><!--MD5=[abc113dbf5572a754f3e11cedb95eafe]
cluster localhost--><g id="cluster_localhost"><path d="M484.5,49 L551.5,49 A3.75,3.75 0 0 1 554,51.5 L561,71.4883 L662.5,71.4883 A2.5,2.5 0 0 1 665,73.9883 L665,165.5 A2.5,2.5 0 0 1 662.5,168 L484.5,168 A2.5,2.5 0 0 1 482,165.5 L482,51.5 A2.5,2.5 0 0 1 484.5,49 " style="stroke:#000000;stroke-width:1.5;fill:none;"/><line style="stroke:#000000;stroke-width:1.5;fill:none;" x1="482" x2="561" y1="71.4883" y2="71.4883"/><text fill="#000000" font-family="sans-serif" font-size="14" font-weight="bold" lengthAdjust="spacing" textLength="66" x="486" y="64.5352">localhost</text></g><g id="elem_OktaOIDCApp"><rect fill="#F1F1F1" height="81.9531" style="stroke:#181818;stroke-width:0.5;" width="316" x="54" y="88"/><text fill="#000000" font-family="sans-serif" font-size="14" lengthAdjust="spacing" textLength="130" x="147" y="103.5352">OAuth Sample App</text><line style="stroke:#181818;stroke-width:1.0;" x1="54" x2="370" y1="108.4883" y2="108.4883"/><text fill="#000000" font-family="sans-serif" font-size="14" lengthAdjust="spacing" textLength="57" x="73" y="124.0234">client_id</text><text fill="#000000" font-family="sans-serif" font-size="14" lengthAdjust="spacing" textLength="16" x="154" y="124.0234">c1</text><line style="stroke:#181818;stroke-width:1.0;" x1="149" x2="149" y1="108.4883" y2="128.9766"/><line style="stroke:#181818;stroke-width:1.0;" x1="54" x2="370" y1="128.9766" y2="128.9766"/><text fill="#000000" font-family="sans-serif" font-size="14" lengthAdjust="spacing" textLength="85" x="59" y="144.5117">client_secret</text><text fill="#000000" font-family="sans-serif" font-size="14" lengthAdjust="spacing" textLength="16" x="154" y="144.5117">s1</text><line style="stroke:#181818;stroke-width:1.0;" x1="149" x2="149" y1="128.9766" y2="149.4648"/><line style="stroke:#181818;stroke-width:1.0;" x1="54" x2="370" y1="149.4648" y2="149.4648"/><text fill="#000000" font-family="sans-serif" font-size="14" lengthAdjust="spacing" textLength="79" x="62" y="165">redirect_uri</text><text fill="#000000" font-family="sans-serif" font-size="14" lengthAdjust="spacing" textLength="211" x="154" y="165">localhost:9988/oauth/callback</text><line style="stroke:#181818;stroke-width:1.0;" x1="149" x2="149" y1="149.4648" y2="169.9531"/></g><g id="elem_SampleApp"><rect fill="#F1F1F1" height="61.4648" style="stroke:#181818;stroke-width:0.5;" width="135" x="506" y="88"/><text fill="#000000" font-family="sans-serif" font-size="14" lengthAdjust="spacing" textLength="121" x="513" y="103.5352">OIDC Sample App</text><line style="stroke:#181818;stroke-width:1.0;" x1="506" x2="641" y1="108.4883" y2="108.4883"/><text fill="#000000" font-family="sans-serif" font-size="14" lengthAdjust="spacing" textLength="57" x="525" y="124.0234">client_id</text><text fill="#000000" font-family="sans-serif" font-size="14" lengthAdjust="spacing" textLength="16" x="606" y="124.0234">c1</text><line style="stroke:#181818;stroke-width:1.0;" x1="601" x2="601" y1="108.4883" y2="128.9766"/><line style="stroke:#181818;stroke-width:1.0;" x1="506" x2="641" y1="128.9766" y2="128.9766"/><text fill="#000000" font-family="sans-serif" font-size="14" lengthAdjust="spacing" textLength="85" x="511" y="144.5117">client_secret</text><text fill="#000000" font-family="sans-serif" font-size="14" lengthAdjust="spacing" textLength="16" x="606" y="144.5117">s1</text><line style="stroke:#181818;stroke-width:1.0;" x1="601" x2="601" y1="128.9766" y2="149.4648"/></g><g id="elem_N1"><path d="M111,228.35 L111,253.6605 L313,253.6605 L313,238.35 L303,228.35 L111,228.35 " fill="#FEFFDD" style="stroke:#181818;stroke-width:0.5;"/><path d="M303,228.35 L303,238.35 L313,238.35 L303,228.35 " fill="#FEFFDD" style="stroke:#181818;stroke-width:1.0;"/><text fill="#000000" font-family="sans-serif" font-size="13" lengthAdjust="spacing" textLength="181" x="117" y="245.9184">This is global floating notes.</text></g><!--MD5=[4d622f7dac463ec78c82f9a1b24192b2]
link OktaOIDCApp to SampleApp--><g id="link_OktaOIDCApp_SampleApp"><path codeLine="26" d="M371,118 C428.35,118 444.28,118 498.55,118 " fill="none" id="OktaOIDCApp-to-SampleApp" style="stroke:#181818;stroke-width:1.0;"/><polygon fill="#181818" points="503.49,118,494.49,114,498.49,118,494.49,122,503.49,118" style="stroke:#181818;stroke-width:1.0;"/><text fill="#000000" font-family="sans-serif" font-size="13" lengthAdjust="spacing" textLength="30" x="435" y="114.5684">copy</text></g><!--MD5=[4d622f7dac463ec78c82f9a1b24192b2]
link OktaOIDCApp to SampleApp--><g id="link_OktaOIDCApp_SampleApp"><path codeLine="27" d="M371,138 C413.28,138 423.81,145.7 466,143 C481.12,142.04 486.2,138.99 498.68,138.19 " fill="none" id="OktaOIDCApp-to-SampleApp-1" style="stroke:#181818;stroke-width:1.0;"/><polygon fill="#181818" points="503.49,138.05,494.3794,134.3087,498.492,138.1928,494.6079,142.3054,503.49,138.05" style="stroke:#181818;stroke-width:1.0;"/><text fill="#000000" font-family="sans-serif" font-size="13" lengthAdjust="spacing" textLength="30" x="435" y="139.5684">copy</text></g><!--MD5=[7355840704838bdde2fe651aa42aea88]
@startuml

left to right direction

note as N1
This is global floating notes.
end note

package "acme.okta.com" as Okta {
  package Applications {
    map "OAuth Sample App" as OktaOIDCApp {
      client_id => c1
      client_secret => s1
      redirect_uri => localhost:9988/oauth/callback
    }
  }
}

package localhost {
  map "OIDC Sample App" as SampleApp {
    client_id => c1
    client_secret => s1
  }
}

Okta.Applications.OktaOIDCApp::client_id - -> localhost.SampleApp::client_id : copy
Okta.Applications.OktaOIDCApp::client_secret - -> localhost.SampleApp::client_secret : copy

@enduml

PlantUML version 1.2022.4(Sat Apr 09 06:29:17 PDT 2022)
(GPL source distribution)
Java Runtime: OpenJDK Runtime Environment
JVM: OpenJDK 64-Bit Server VM
Default Encoding: UTF-8
Language: en
Country: US
--></g></svg>